# xmcd
#
# Track frame offsets:
#	225
#	15185
#	26356
#	36253
#	45402
#	60270
#	73052
#	88410
#	102757
#	112726
#	127691
#	141841
#	155004
#	169844
#	185603
#	196744
#
# Disc length: 2861 seconds
#
# Revision: 1
# Processed by: cddbd v1.5.2PL0 Copyright (c) Steve Scherf et al.
# Submitted via: audiograbber 1.83.01
#
DISCID=c50b2a10
DTITLE=John Hogan - Where I Come From
DYEAR=2006
DGENRE=Country
TTITLE0=I Loved Her
TTITLE1=From Here To There To You
TTITLE2=My Wild Irish Rose
TTITLE3=My Old Hometown
TTITLE4=Green Hills Of Ferbane
TTITLE5=Galway Girl
TTITLE6=The Old Bog Road
TTITLE7=Heartbreak Hill
TTITLE8=I'll Take You Home Again Kathleen
TTITLE9=Long Gone Are The Days
TTITLE10=My Old Homestead
TTITLE11=Where I Come From
TTITLE12=Candle And Wine
TTITLE13=My Old Home In Mayo
TTITLE14=Solid As A Rock
TTITLE15=Wearing White
EXTD=
EXTT0=
EXTT1=
EXTT2=
EXTT3=
EXTT4=
EXTT5=
EXTT6=
EXTT7=
EXTT8=
EXTT9=
EXTT10=
EXTT11=
EXTT12=
EXTT13=
EXTT14=
EXTT15=
PLAYORDER=
